<svg version="1.1" xmlns="http://www.w3.org/2000/svg" xmlns:xlink="http://www.w3.org/1999/xlink" width="22.4" height="22.4"><g transform="translate(-228.8,-168.8)"><g data-paper-data="{&quot;isPaintingLayer&quot;:true}" fill="none" fill-rule="nonzero" stroke="#000000" stroke-width="2.5" stroke-linecap="none" stroke-linejoin="miter" stroke-miterlimit="10" stroke-dasharray="" stroke-dashoffset="0" font-family="none" font-weight="none" font-size="none" text-anchor="none" style="mix-blend-mode: normal"><path d="M230.05,188.625c0,-1.5513 0,-10.51797 0,-17.25c0,-0.5171 1.26521,-1.325 2.075,-1.325c6.39056,0 14.67736,0 16.375,0c0.56588,0 1.45,0.8079 1.45,1.325c0,6.78081 0,15.97006 0,17.375c0,0.46831 -0.57925,1.2 -0.95,1.2c0,0 -16.88775,0 -18,0c-0.37075,0 -0.95,-0.8079 -0.95,-1.325z" data-paper-data="{&quot;origPos&quot;:null}" fill="#7ddb7c" stroke-linecap="butt"/><path d="M238.32873,175.12532l5.42924,5.33483l-5.8913,3.03533v-8.46214z" data-paper-data="{&quot;origPos&quot;:null}" fill="#000000" stroke-linecap="round"/></g></g></svg>