<svg version="1.1" xmlns="http://www.w3.org/2000/svg" xmlns:xlink="http://www.w3.org/1999/xlink" width="91.9" height="91.9"><g transform="translate(-198.55,-174.54999)"><g data-paper-data="{&quot;isPaintingLayer&quot;:true}" fill="none" fill-rule="nonzero" stroke="#000000" stroke-width="none" stroke-linecap="none" stroke-linejoin="miter" stroke-miterlimit="10" stroke-dasharray="" stroke-dashoffset="0" font-family="none" font-weight="none" font-size="none" text-anchor="none" style="mix-blend-mode: normal"><path d="M201.05,258.16394c0,-6.77427 0,-45.93023 0,-75.32789c0,-2.25809 5.52496,-5.78606 9.06118,-5.78606c27.90652,0 64.0936,0 71.50691,0c2.4711,0 6.33191,3.52797 6.33191,5.78606c0,29.61067 0,69.7386 0,75.87374c0,2.04503 -2.52949,5.2402 -4.14849,5.2402c0,0 -73.746,0 -78.60302,0c-1.619,0 -4.14849,-3.52797 -4.14849,-5.78606z" data-paper-data="{&quot;origPos&quot;:null}" fill="#7ddb7c" stroke-width="5" stroke-linecap="butt"/><path d="M237.20184,199.21308l23.70859,23.29632l-25.72633,13.25478v-36.95276z" data-paper-data="{&quot;origPos&quot;:null}" fill="#000000" stroke-width="8" stroke-linecap="round"/></g></g></svg>